#define _width 48
#define _height 48
static char _bits[] = {
 0x00,0x00,0x00,0x00,0x00,0x00,0x06,0x06,0x20,0x60,0x60,0x60,0x8c,0x05,0x18,
 0x20,0xa0,0x59,0x7c,0x03,0x16,0xf0,0xc0,0x36,0xd8,0x81,0x05,0xd0,0x80,0x1f,
 0x78,0x61,0x03,0xb8,0x81,0x15,0xe8,0xe1,0x03,0xa8,0x81,0x1f,0x5c,0x03,0x0f,
 0x0c,0x41,0x35,0xf4,0x01,0x14,0x04,0xc3,0x2f,0x0c,0x07,0x18,0x02,0xa4,0x38,
 0x06,0x02,0x20,0x02,0x68,0x40,0x00,0x08,0x80,0x00,0x00,0x80,0x00,0x00,0x00,
 0x00,0x00,0x00,0x00,0x06,0x00,0x00,0x00,0x06,0x80,0x01,0x00,0x00,0x00,0x02,
 0xe0,0x80,0x1f,0xf8,0x01,0x0f,0xb8,0x80,0x0d,0x68,0x01,0x0d,0x36,0x80,0x1e,
 0xb8,0x81,0x1b,0x2e,0x80,0x1b,0xe8,0x81,0x1a,0x70,0x80,0x16,0xb8,0xc0,0x10,
 0xe0,0x80,0x1f,0xe8,0x41,0x30,0x80,0x01,0x00,0x00,0x20,0x40,0x00,0x06,0x00,
 0x00,0x20,0x00,0x00,0x00,0x00,0x00,0x00,0x80,0x00,0x00,0x00,0x00,0x00,0x00,
 0x02,0x08,0x00,0x00,0x60,0x00,0x04,0x04,0x00,0x00,0x80,0x01,0x04,0x82,0x1f,
 0xf8,0x01,0x07,0x0c,0x83,0x0a,0xa8,0x01,0x1a,0xd8,0x81,0x1f,0x78,0x01,0x6e,
 0x70,0x81,0x1a,0xe8,0x01,0x3c,0xd0,0x80,0x17,0x58,0x01,0x16,0x70,0x80,0x1e,
 0xe8,0x81,0x03,0xa0,0x00,0x00,0x00,0x80,0x00,0x60,0x00,0x00,0x00,0x40,0x00,
 0x00,0x00,0x00,0x00,0x20,0x00,0x00,0x00,0x00,0x00,0x00,0x80,0x06,0x16,0x80,
 0x02,0x60,0x60,0x8c,0x25,0x40,0x1c,0xc0,0x38,0x7c,0xc3,0x20,0x30,0xc0,0x2f,
 0xd8,0x81,0x38,0xe0,0x81,0x1d,0x78,0x81,0x09,0xc0,0x86,0x17,0xe8,0x81,0x1f,
 0xc0,0x83,0x1e,0x5c,0x03,0x0d,0x60,0xc1,0x35,0xf4,0x01,0x0b,0x70,0x40,0x1f,
 0x0c,0x07,0x06,0x18,0xe0,0x70,0x06,0x02,0x04,0x04,0x20,0x20,0x00,0x08,0x00,
 0x02,0x00,0x80 };
